<?xml version="1.0" standalone="no"?>
<!DOCTYPE svg PUBLIC "-//W3C//DTD SVG 20010904//EN"
 "http://www.w3.org/TR/2001/REC-SVG-20010904/DTD/svg10.dtd">
<svg version="1.0" xmlns="http://www.w3.org/2000/svg"
 width="260.000000pt" height="260.000000pt" viewBox="0 0 260.000000 260.000000"
 preserveAspectRatio="xMidYMid meet">
<metadata>
Created by potrace 1.11, written by Peter Selinger 2001-2013
</metadata>
<g transform="translate(0.000000,260.000000) scale(0.100000,-0.100000)"
fill="#000000" stroke="none">
<path d="M0 1300 l0 -1300 1300 0 1300 0 0 1300 0 1300 -1300 0 -1300 0 0
-1300z m2340 0 l0 -1040 -1040 0 -1040 0 0 1040 0 1040 1040 0 1040 0 0 -1040z"/>
<path d="M440 1295 l0 -855 145 0 145 0 0 705 0 705 145 0 145 0 0 150 0 150
-290 0 -290 0 0 -855z"/>
<path d="M1100 2000 l0 -150 263 0 c290 0 322 -5 389 -60 104 -86 114 -268 20
-372 -66 -73 -98 -82 -329 -88 l-202 -5 273 -440 274 -440 176 -3 175 -2 -204
310 c-113 170 -205 312 -205 314 0 3 17 10 38 16 168 54 293 195 337 381 19
81 19 238 0 309 -36 137 -136 267 -247 323 -90 46 -181 56 -485 57 l-273 0 0
-150z"/>
</g>
</svg>
